<?xml version="1.0" encoding="UTF-8"?><svg id="Layer_0_Image" data-name="Layer 0 Image" xmlns="http://www.w3.org/2000/svg" viewBox="0 0 800 600" x="0px" y="0px" width="800px" height="600px" version="1.1" xmlns:xlink="http://www.w3.org/1999/xlink"><title>1</title><path d="M306.535,249.86c18.21-6.036,35.418-14.523,53.169-21.671,25.457-10.253,50.867-20.64,77.213-28.59,16.183-4.883,31.742-11.583,48.161-16.024,38.292-10.357,76.273-21.745,115.109-30.156,31.171-6.75,62.247-13.893,93.6-19.811,27.793-5.247,55.89-8.042,83.933-11.315,3.931-.459,7.95-.5,11.5,1.519-.2,3.764-4.8.808-5.049,4.114,2.7,1.595,8.721-2.469,8.331,2.609-.318,4.153-3.5,8.645-9.224,10.3-7.953,2.294-16.054.958-24.015,2.434-35.3,6.543-70.782,12.042-105.71,20.653-21.485,5.3-43.262,9.719-64.123,16.966-11.565,4.017-23.95,4.379-35.053,9.629-2.728,1.29-6.111.842-7.81,4.642-.63,1.409-4.358,4.935-6.744-.086-.5-1.059-2.368.1-3.633.5-13.676,4.4-28.095,7.24-40.874,13.458-12.442,6.054-25.721,9.254-38.317,14.571-8.9,3.757-19.311,3.019-28.321,7.548-3.72,1.87-7.881,2.859-11.082,5.753l-4.489,1.33c-10.422,2.354-20.438,5.733-29.449,11.653a94.138,94.138,0,0,0-30.648,12.683c-11.25,3.718-22.574,7-31.959,15.031-3.9,3.335-9.442,4.7-14.1,7.2-15.873,8.528-31.654,17.226-47.552,25.706-2.941,1.568-5.662,4.29-9.559,3.135-9.012,2.523-16.693,7.457-23.92,13.21-7.1,6.1-15.968,9.2-23.993,13.659-10.347,5.748-20.389,11.281-28.875,19.964-6.982,7.144-16.985,10.657-25.153,16.727-17.855,13.266-36.751,25.78-51.6,42.009-16.148,17.649-36.567,30.545-51.327,49.438-3.764,4.819-6.219,10.551-11.222,14.566-5.094,4.088-15.393,4.972-21.354-.2C7.519,478.787,5.935,472.9,9.178,466.43c5.553-11.086,12.673-21.154,20.387-30.743,33.19-41.261,73.145-75.2,116.03-105.817A964.159,964.159,0,0,1,277.86,251.04c23.469-11.64,47.766-21.355,71.867-31.567,24.8-10.508,49.7-20.658,75.266-29.082,22.762-7.5,45.811-14.112,68.819-20.823,26.948-7.862,53.975-15.352,81.263-21.671,65.452-15.155,131.169-29.113,198.5-33.14,4.541-.271,9.361-3.334,14.164.783-3.645,4.117-8.445,4.484-13.161,4.821-34.527,2.467-68.628,7.7-102.731,13.69-50.267,8.824-99.354,22.415-148.788,34.577-23.907,5.882-47.137,14.463-70.808,21.363-31.052,9.052-61.2,20.655-91.26,32.4-17.979,7.023-35.827,14.673-52.588,24.48-1.218.713-2.2,1.517-1.746,3.137-4.163-1.4-7.142,1.511-10.391,3.04-25.29,11.9-49.943,25.028-74.353,38.645-15.32,8.546-30,18.146-45.116,27.024-15.906,9.343-30.669,20.775-45.208,32.214-4.117,3.239-11.068,4.617-11.568,11.723-8.454.772-12.043,7.746-16.821,13.2,6.018-3.875,12.12-7.655,16.661-13.38a33.9,33.9,0,0,0,4.854-2.626c42.681-32.708,88.116-61.066,135.707-86.021C275.76,265.774,291.161,257.843,306.535,249.86ZM51.91,423.269c-3.939,3-8.1,5.892-9.591,10.979C46.02,431.033,50.451,428.51,51.91,423.269Z"/></svg>