<?xml version="1.0" encoding="UTF-8"?><svg id="Layer_0_Image" data-name="Layer 0 Image" xmlns="http://www.w3.org/2000/svg" viewBox="0 0 800 600" x="0px" y="0px" width="800px" height="600px" version="1.1" xmlns:xlink="http://www.w3.org/1999/xlink"><title>1</title><path d="M315.138,270.073l1.709,2.089-10.5,2.33,1.413,1.621-10.447,2.2,1.216,1.475a59.114,59.114,0,0,1-6.107,1.923,29.2,29.2,0,0,1-4.533.073c-1.606.071-.6,2.279-2.624,2.871a35.019,35.019,0,0,1-6.385,1.087c.683.872,1.017,1.3,1.579,2.017l-10.485,2.328,1.321,1.461-13.158,3.419,1.409,1.684-13.094,3.585c.735.923,1.079,1.354,1.35,1.693l-13.117,3.524c.717.787,1.129,1.241,1.524,1.675l-13.149,3.442,1.489,1.751-12.917,3.308,1.231,2.5c-3.646.086-7.328-.553-10.261,1.984l1.248,1.383-10.494,1.717,1.363,2.81a22.1,22.1,0,0,0-14.258,3.17l1.364,1.543c-.767.157-1.436.523-1.926.357-2.777-.942-4.89-.444-7.3,1.8a1.593,1.593,0,0,1-1.231.2c-.577-.12-1.319-.784-1.634-.6-1.447.839-2.892,2.05-4.531.886-1.7-1.207-2.463-3.368-4.215-4.658-.4-.292-.058-1.58-.058-2.168l-6.2-2.36L165.1,320.1c-2.205-1.15-3.468-.406-5.025.514-1.069.631-2.811.121-4.16.121-.674-3.681,2.235-3.925,3.807-4.5,10.574-3.839,20.506-9.068,30.589-13.94,10.836-5.237,21.234-11.418,32.216-16.3,7.329-3.26,14.387-7.082,21.764-10.15,8.321-3.462,16.279-7.737,24.7-10.892,5.446-2.038,10.49-4.9,15.99-6.895,5.221-1.889,10.455-4.093,15.5-6.426q8.19-3.787,16.566-7.056c10.425-4.095,20.782-8.365,31.255-12.349,6.89-2.62,13.712-5.551,20.564-8.341,10-4.073,20.2-7.633,30.158-11.848,8.652-3.661,17.786-6.165,26.552-9.577,7.283-2.833,14.675-5.328,22.01-8,13.172-4.8,26.336-9.606,39.565-14.247,8.5-2.981,17.121-5.659,25.509-8.929,12.531-4.885,25.465-8.554,38.087-13.1,7.547-2.717,15.078-5.405,22.729-7.824,9.356-2.958,18.46-6.739,27.87-9.491,14.07-4.114,27.848-9.064,41.747-13.672,10.456-3.467,21.087-6.423,31.105-11.137,1.375-.647,3.155-.436,4.607-.606,1.584,4.035-3.737,2.985-3.5,6.318a18.645,18.645,0,0,1,3-1.045,26.949,26.949,0,0,1,3.818-.038l-1.33,3.485c.942.624,2.662.483,2.438,2.7-.113,1.111-2.584,2.273-.184,3.486-.107.153-.181.362-.327.451a29.559,29.559,0,0,1-3.138,1.828c-5.655,2.542-11.172,5.546-17.048,7.407-8.042,2.546-15.728,5.971-23.689,8.679-11.951,4.065-23.918,8.087-35.834,12.255-7.553,2.642-15.025,5.517-22.576,8.3.494.549.9,1.006,1.313,1.462-.162.162-.3.424-.471.445-.3.036-8.815,1.291-9.368,1.454-3.226.951-6.455,1.895-9.852,2.891l2.056,2.413c-1.441-.261-2.169-.334-2.861-.534-.758-.218-1.634-.974-2.2-.771-3.715,1.343-7.359,2.88-11.048,4.363l1.826,2.163c-1.463-.281-2.188-.367-2.88-.567-.757-.219-1.632-.957-2.2-.753-3.709,1.339-7.348,2.872-11.035,4.352l1.834,2.19c-1.487-.3-2.209-.4-2.9-.6-.754-.218-1.629-.94-2.2-.735-3.7,1.336-7.338,2.864-11.022,4.341l1.841,2.219c-1.511-.324-2.39-.265-2.888-.672a2.241,2.241,0,0,0-2.743-.365c-6.887,2.711-13.868,5.185-20.945,7.787l1.322,1.514c-1.667,2.431-3.806-2.68-5.913.448-.843,1.253-3.712,1.14-5.924,1.719l1.333,1.623a4.477,4.477,0,0,1-.739.729c-.118.076-5.841-.052-6.051.025-5.074,1.852-10.147,3.708-15.319,5.6l1.442,1.6a23.973,23.973,0,0,0-11.618,2.475l1.232,1.368c-.315.207-.695.664-.979.611-6.777-1.267-12.206,3-18.295,4.518-3.21.8-6.177,2.573-9.261,3.91.464.548.838.992,1.233,1.46-.466.21-.882.583-1.188.508-5.044-1.238-9.613,1.053-13.712,2.972-5.283,2.474-11.2,3.348-16.045,6.85l1.41,1.647H388.6l-.481,2.358c-1.586,1.956-5.578-1.579-6.664,3.091-1.229,0-2.678-.095-4.1.04-.717.067-1.974.524-1.991.855-.073,1.456-.749,1.606-2.011,1.769-1.751.227-4.52-1.5-4.905,2.122-.021.2-1.109.31-1.709.4-1.828.284-4.459-1.146-4.79,2.28l-5.6.481c-.512.82-.885,2.17-1.549,2.334a25.977,25.977,0,0,1-5.081.318c-.4,3.568-3.412,1.988-5.141,2.444-.22.385-.412.578-.372.682.071.185.3.3.431.472.214.288.4.6.9,1.373h-8.314l1.52,1.878c-1.017,2.283-4.067-.884-5.1,1.945s-3.649.813-5.453,1.389c-1.918.612-3.831,1.24-6.025,1.951.109-.2-.074-.01-.032.093.074.185.305.3.431.472.21.287.388.6.884,1.376Z"/><path d="M590.182,449.883c23.377,3.67,19.556.922,18.934,2.735l5.856,2.143-4.422,3.08,1.062,1.216c-.288.212-.616.661-.908.639-7.242-.537-14.246,1.94-21.545,1.441a117.568,117.568,0,0,0-22.04.1c-5.908.716-11.76.936-17.663,1.15-1.819.066-3.306-1.47-5.518-.242-1.654.918-4.228.181-6.392.181h-7.141c-2.164,0-4.328-.007-6.492,0s-4.313.025-6.469.072c-.157,0-.307.286-.856.835l5.463.7c-.009.275-.017.549-.026.823-2.256.056-4.512.134-6.769.161-2.38.028-4.761.016-7.141,0-.405,0-1.007.02-1.184-.218-2.4-3.218-5.095-2.82-8.29-1.172-1.2.617-2.978.1-4.493.1-20.342,0-40.683-.034-61.025.049-2.215.009-4.771-1.083-6.62,1.236a.634.634,0,0,1-.616,0c-1.827-2.146-3.909,1.058-5.362-.076-1.877-1.466-3.137-1.211-4.9-.009-.539.367-1.95-.291-2.828-.74-1.228-.629-1.15-1.5-.012-2.26-.223-.266-.4-.681-.682-.761-.373-.108-1.054-.107-1.194.111-.426.662-.482,1.623-1,2.146a4.451,4.451,0,0,1-2.558,1.51c-1.5.02-3.345-1.229-4.431-.695a4.753,4.753,0,0,1-4.571.047c-1.18-.48-2.927.676-4.426.7-6.042.1-12.085.041-17.986.041l-1.6-2.6c-.81.689-1.619,1.379-3.132,2.668-2.524.639-6.908-1.77-9.546,2.618l-2.137-2.354a24.686,24.686,0,0,1-15.061-.054c-5.129,2.367-10.447.3-15.63,1.119a11.4,11.4,0,0,0,.219-2.606c-2.018-.677-1.695,1.165-2.26,2.4H319.9c-.347.944-.622,1.694-.914,2.49-.3-.152-.721-.223-.879-.466-1.233-1.881-3.343-2.653-5-1.812-3.9,1.974-7.909.928-11.855,1.149-3.4.191-6.816.04-10.292.979l6.245.631c-4.758.417-9.816,3.1-13.374-1.212a55.908,55.908,0,0,1-6.5.9c-6.227.109-12.458.04-18.559.04-.383,1.1-.645,1.858-1.036,2.983-1.049-1.581-1.906-2.871-2.76-4.16-.44,1.782-1.465,3.631-3.322,2.354-1.963-1.351-3.09-.424-4.888-.065-3.286.656-6.8.187-10.315,1.027l4.921.773c-.269.422-.447.948-.629.949-4.76.045-9.535.256-14.278-.037-3.5-.217-6.882-1.783-10.5-1.22a2.516,2.516,0,0,0-1.756,1l5.21.546c-5.428.558-10.747,2.039-16.219.011-2.421-.9-5.452-.151-8.372.539l3.62.889c-.21.342-.38.869-.56.873-2.157.043-4.316.009-6.474,0-1.159-2.74-2.893,1.327-4.657-.473-1.145-1.169-3.534,1.581-5.855-.55-1.263-1.159-4.462-.207-6.88.635l5.115.8c-.378.414-.61.893-.849.9-3.245.049-6.5-.107-9.736.063-6.318.331-12.728.306-18.9,1.481-3.327.634-6.589.765-9.88,1.164-2.825.342-5.577,1.337-6.68,5.075-1.127,0-3.63.445-3.851-.076-.964-2.282-3.9-2.522-4.553-4.483-.619-1.856-1.641-2.428-3.175-3.29-3.1-1.74-3.765-5.072-2.2-8.316l-2.561-2.712c.037-.468-.094-1.033.128-1.286a13.586,13.586,0,0,1,9.147-4.641c6.353-.787,12.56-2.736,19.07-2.431,3.729-2.276,7.861-.9,11.794-1.32,3.078-.33,6.124-1.01,9.206-1.231,3.014-.216,6.368.77,9.011-.241,3.8-1.455,7.527-1.269,11.213-.988,4.739.362,9.107-1.551,13.754-1.441,4.758.113,9.719.884,14.239-.158,8.728-2.013,17.511-.008,26.1-1.247,10.653-1.537,21.409-.042,31.912-1.392,14.149-1.818,28.241-.438,42.339-1.065,1.727-.077,3.462.009,5.193-.016,1.456-.02,3.058.385,4.03-1.235.773,2.05,2.448-.2,3.8.785.824.6,2.884-.651,4.415-.8,1.714-.17,3.458-.039,5.19-.039h19.476c1.731,0,3.474-.126,5.19.033,2.029.187,4.039-.5,6.142.942,1.011.692,3.363-.874,5.121-.921,5.406-.147,10.821.039,16.228-.1,2.01-.053,4.274.941,5.989-1.224,1.128-1.422,1.966,2.484,3.668.356.538-.673,3.235-.783,3.524-.3,1.636,2.728,3.486-1.412,4.733.267,1.765,2.377,2.865-.42,4.287-.33a18.726,18.726,0,0,1,2.4.456c1.4.275,3.626,1.229,4.06.7,1.777-2.15,3.854-.042,5.8-.868,2.018-.856,4.648-.306,7.01-.306,42.415-.008,84.829.058,127.243-.082,5.655-.019,11.5,1.4,16.991-1.223,2.887,2.481,5.74-.274,8.668-.145,9.065.4,18.159.145,27.866.145-.329,1.011-.526,2.468-.853,2.5-4.584.421-9.023,1.675-13.739,1.5-9.509-.348-19.04-.111-28.561-.077-.345,0-.687.4-1.031.62a6.681,6.681,0,0,0,1.3.635c1.143.284,2.194,1.723,3.542.081.348-.424,1.653-.064,2.518-.064,12.532,0,25.064,0,15.31.547-22.614.317-22.59.088-22.567-.142a54.88,54.88,0,0,0-6.041-1.556c-1.087-.163-7.957.075-8.942-.063-.843-.119-2.139-.434-2.5-.022-1.764,2.041-4.011,1.2-6.029,1.2q-46.114.078-92.226-.017c-1.8,0-3.863.956-5.5-.842-.311-.342-1.445-.51-1.67-.267-1.971,2.13-4.464.9-6.7,1.132-4.577.481-9.256-.785-13.8,1.207-1.284.563-3.239-.247-4.845-.608-3.092-.694-6.158-1.192-9.171.23-1.052.5-2.354-1.361-3.22.4-1.663-2.093-4.452-1.755-5.9-1-2.407,1.266-4.147-1.135-6.176-.206-.362.166-.908.113-1.131.368-1.067,1.223-1.835.945-3.23.188a6.641,6.641,0,0,0-4.9-.416,11.9,11.9,0,0,1-5.528.914c-2.216-.449-4.092.16-6.12.234-15.836.582-31.681-.788-47.542,1.16-11.838,1.454-23.84-.519-35.846,1.227-10.919,1.589-22.112-.411-33.232,1.338-8.764,1.379-17.819-.577-26.743,1.338-4.139.888-8.649-.121-12.95.231-3.948.323-7.8-.587-11.944.846-3.866,1.336-8.538.325-12.854.391a11.007,11.007,0,0,0-2,.395,2.914,2.914,0,0,0,2.49.882c7.624-.265,15.206.091,22.874-1.091,9.208-1.419,18.635.387,28.045-1.3,8.732-1.562,17.9,1.179,26.695-1.531,1.238-.381,2.287,2.493,3.512.108,1.406,2.138,2.723-.136,4.084-.164,10.651-.22,21.361,1.067,31.948-1.17,1.42-.3,3.545-.543,4.358.227,1.839,1.743,2.739-.98,4.337-.377,1.326.5,2.992.1,4.507.1,8.66,0,17.321.07,25.979-.048,2.227-.031,4.708.982,6.706-1.114.222-.233,1.392.526,2.151.693,1,.221,2.641.778,2.946.379,1.208-1.579,1.921-.2,2.952-.04s2.219-1.089,3.338-1.088c1.807,0,3.923-.9,5.364,1.083,1.257-1.485,2.981-1.165,4.6-1.151,1.648.013,3.478-.538,4.649,1.264,1.168-1.844,3.029-1.255,4.667-1.26,10.825-.032,21.657.234,32.472-.088,10.646-.317,21.385,1.479,31.938-1.228,1.3,1.248,2.992.575,4.448.693,1.882.154,3.823-.633,5.74-.639,2.217-.007,4.645-.768,6.559,1.132,2.121-2.323,4.883-1.114,7.3-1.122,28.577-.1,57.154-.06,85.731-.073C563.37,450.625,565.457,450.5,590.182,449.883Z"/><path d="M302.142,360.72c-1.125,1.981-1.6,2.822-2.221,3.913h6.208l.148-.554c-.6-.158-1.2-.344-1.808-.468-.588-.12-1.19-.176-1.934-.282.1-.779-.013-1.733.275-1.874a17.042,17.042,0,0,1,4.472-1.7c3.472-.593,7-.858,10.485-1.373,1.733-.256,3.429-.767,5.068-1.145,1.928,2.86-1.8,1.9-1.979,3.447,4.5,1.619,8.369-2.144,12.737-1.449-2.9-.734-5.787-1.759-9.1-.033.393-.7.619-1.71,1.216-2.029a16.53,16.53,0,0,1,3.975-1.345c2.226-.527,4.684.914,6.8-.841,1.651-1.37,4.01.263,5.912-1.613.955-.941,3.6-.164,5.716-.164-1.736,3.618-4.606,2.187-6.928,2.639a15.45,15.45,0,0,0-6.05,2.518c4.71-.42,9.546-.317,14.094-1.411,4.321-1.039,8.513-2.633,13.049-3.486l-9.129-.5c0-.262,0-.524,0-.786l19.226-3.035q.105.51.212,1.019l-8.983,2.344c2.788.341,5.614,1.878,8.242-.432,5.844.244,11.48-2.8,17.561-1.067v4.312c-1.065.482-2.235-1.1-3.378.417-.542.717-2.533-.791-3.032,1.267-.135.557-1.3,1.435-1.491,1.322-3.165-1.872-6.257.452-9.349.042a16.167,16.167,0,0,1-3.01-1.053l-.627,3.288c-1.827-1.526-4.152,1.792-5.827-.781l-.96,2.688c-2.332-.826-4.523-2.486-7.185-.991l1.6,1.976-11.127-1.478-4.193,4.187c-2.044-.021-2.9-2.415-4.985-.448-1.633,1.537-4.251,2.241-6.556,2.774a10.3,10.3,0,0,1-4.774-.552c-1.093-.3-1.976.884-3.395-.324-1.487-1.266-1.318,1.386-2.087,2.086a4.28,4.28,0,0,1-2.632,1.339c-3.43-.256-6.657,1.554-10.088.835-.178-.037-.309-.291-.462-.444-3.671,3.775-9.095,2.123-13.125,4.156-3.364,1.7-7.251-.5-10.116,2.259-9.311,2-18.836,3.079-27.817,6.5-5.528-.656-10.266,2.564-15.621,3.18a61.786,61.786,0,0,0-14.7,3.545c-8.324,3.187-17.433,3.482-25.42,7.564-2.9-.632-4.679,1.042-6.672,2.8-1.1.974-3.045,1-4.343,1.37-2.806-2.2-4.434-5.145-7.566-6.168.551-2.145,1.107-4.312,1.768-6.886,7.183-2.34,14.6-5.468,22.632-6.8,3.718-.617,7.194-2.657,10.911-3.317,4.619-.821,9.106-2.334,13.7-2.934,4.905-.642,9.53-2.242,14.284-3.309,2.934-.659,6.008-1.379,8.895-1.8,4.888-.72,9.432-2.694,14.366-3.151,2.966-.275,5.828-1.558,8.769-2.252,2.008-.474,4.237.787,6.153-.844,1.63-1.388,4.388.647,5.747-1.779,3.631.641,7-.815,10.491-1.331A25.313,25.313,0,0,0,302.142,360.72Z"/></svg>